<?xml version="1.0" encoding="utf-8"?>
<!-- Generator: Adobe Illustrator 16.0.0, SVG Export Plug-In . SVG Version: 6.00 Build 0)  -->
<!DOCTYPE svg PUBLIC "-//W3C//DTD SVG 1.1//EN" "http://www.w3.org/Graphics/SVG/1.1/DTD/svg11.dtd">
<svg version="1.1" id="Layer_1" xmlns="http://www.w3.org/2000/svg" xmlns:xlink="http://www.w3.org/1999/xlink" x="0px" y="0px"
	 width="160px" height="70px" viewBox="0 0 160 70" enable-background="new 0 0 160 70" xml:space="preserve">
<g id="Layer_1_1_">
	<g>
		<path fill="#FFFFFF" stroke="#FFFFFF" stroke-width="2" stroke-miterlimit="10" d="M4.244,10.211H1.213V7.333h13.94
			c5.128,0,8.858,3.11,8.858,8.215c0,3.574-1.818,5.94-4.196,7.101v0.092c3.356,0.929,5.501,4.131,5.501,8.076
			c0,5.801-4.289,9.144-9.79,9.144H7.087c-2.004,0-2.843-0.837-2.843-2.832V10.211z M15.106,21.489c3.309,0,5.547-2.32,5.547-5.708
			c0-3.341-2.145-5.569-5.595-5.569H7.507v11.277H15.106z M8.532,37.083h6.994c3.962,0,6.387-2.46,6.387-6.359
			s-2.61-6.451-6.434-6.451H7.507v11.79C7.507,36.758,7.88,37.083,8.532,37.083z"/>
		<path fill="#FFFFFF" stroke="#FFFFFF" stroke-width="2" stroke-miterlimit="10" d="M31.657,20.375c0-0.65-0.374-1.021-1.026-1.021
			h-1.958v-2.739h3.263c1.958,0,2.844,0.789,2.844,2.646v1.578c0,0.975-0.093,1.763-0.093,1.763h0.093
			c1.119-3.527,3.73-6.219,7.414-6.219c0.652,0,1.258,0.139,1.258,0.139v3.11c0,0-0.559-0.093-1.166-0.093
			c-3.31,0-5.781,2.599-6.806,6.033c-0.466,1.485-0.653,3.063-0.653,4.548v9.84h-3.17V20.375z"/>
		<path fill="#FFFFFF" stroke="#FFFFFF" stroke-width="2" stroke-miterlimit="10" d="M59.164,25.573h1.305v-0.279
			c0-4.873-1.771-6.59-6.06-6.59c-1.167,0-4.569,0.325-4.569,2.042v1.485h-3.03v-2.228c0-3.249,5.595-3.945,7.645-3.945
			c7.413,0,9.185,3.945,9.185,8.957V36.2c0,0.696,0.374,1.021,1.026,1.021h1.958v2.739h-3.217c-2.005,0-2.796-0.883-2.796-2.785
			c0-1.021,0.045-1.717,0.045-1.717h-0.092c0.047,0-1.912,5.06-7.786,5.06c-3.917,0-7.972-2.274-7.972-6.917
			C44.805,25.851,55.107,25.573,59.164,25.573z M53.29,37.825c4.476,0,7.179-4.641,7.179-8.679v-1.067h-1.351
			c-3.684,0-11.049,0.092-11.049,5.337C48.068,35.598,49.792,37.825,53.29,37.825z"/>
		<path fill="#FFFFFF" stroke="#FFFFFF" stroke-width="2" stroke-miterlimit="10" d="M70.771,34.251c0,0,2.611,3.528,7.227,3.528
			c2.611,0,4.941-1.254,4.941-3.713c0-5.105-13.146-4.177-13.146-11.695c0-4.223,3.636-6.312,8.346-6.312
			c2.378,0,7.134,0.928,7.134,4.223v1.995h-2.985v-1.114c0-1.716-2.517-2.367-4.055-2.367c-3.265,0-5.223,1.114-5.223,3.388
			c0,5.245,13.147,4.038,13.147,11.789c0,3.898-3.543,6.544-8.206,6.544c-6.106,0-8.998-4.086-8.998-4.086L70.771,34.251z"/>
		<path fill="#FFFFFF" stroke="#FFFFFF" stroke-width="2" stroke-miterlimit="10" d="M92.404,20.375c0-0.65-0.373-1.021-1.025-1.021
			h-1.96v-2.739h3.312c2.004,0,2.843,0.836,2.843,2.832v16.754c0,0.695,0.374,1.02,1.026,1.02h1.957v2.74h-3.312
			c-2.003,0-2.843-0.837-2.843-2.832V20.375H92.404z M92.311,7.333h3.078v3.992h-3.078V7.333z"/>
		<path fill="#FFFFFF" stroke="#FFFFFF" stroke-width="2" stroke-miterlimit="10" d="M103.827,11.092
			c0-0.649-0.374-1.021-1.026-1.021h-1.958V7.333h3.312c2.004,0,2.843,0.836,2.843,2.831v26.037c0,0.695,0.374,1.02,1.024,1.02
			h1.959v2.74h-3.311c-2.004,0-2.843-0.837-2.843-2.832V11.092z"/>
	</g>
	<text transform="matrix(1.0046 0 0 1 -0.6519 67.9053)" fill="#569AC4" font-family="'Museo-300'" font-size="36.2672">iDados</text>
	<line fill="none" x1="94.156" y1="54.977" x2="94.232" y2="55.857"/>
</g>
<g id="Layer_2">
	<g>
		<path fill="#D95928" d="M143.753,54.182c1.423-0.203,2.753,0.795,2.958,2.219l1.148,8.041c0.201,1.425-0.735,2.746-2.159,2.949
			l-15.538,2.217c-1.668,0.24-2.434,0.285-4.068-0.367c-1.535-0.61-3.459-1.566-4.818-2.4c-2.449-1.501-2.592-3.197-0.627-5.217
			c1.222-1.256,3-2.855,4.351-3.906c1.321-1.029,1.981-1.138,3.583-1.369L143.753,54.182L143.753,54.182z M120.895,64.189
			c0.11,0.778,0.836,1.319,1.612,1.209c0.779-0.11,1.323-0.834,1.21-1.613c-0.109-0.779-0.833-1.321-1.613-1.211
			C121.324,62.686,120.783,63.409,120.895,64.189z"/>
		
			<text transform="matrix(0.987 -0.1609 0.1609 0.987 128.0723 66.1406)" fill="#FFFFFF" font-family="'HelveticaNeue-UltraLight'" font-size="9.1703">beta</text>
		<path fill="#FFFFFF" d="M122.396,64.591c0.019,0.248-0.062,0.486-0.272,0.699c-0.188,0.194-0.492,0.37-0.94,0.512
			c-0.966,0.306-1.953-0.091-2.996-0.606c-2.695,2.147-5.451,2.307-7.354,1.668c-0.894-0.299-1.604-0.775-2.04-1.309
			c-0.471-0.572-0.634-1.214-0.395-1.797c0.22-0.531,0.812-0.982,1.807-1.258v0.438c-0.816,0.237-1.299,0.594-1.467,1.002
			s-0.032,0.883,0.328,1.324c0.394,0.479,1.047,0.913,1.873,1.19c1.771,0.593,4.32,0.457,6.844-1.464l-0.082-0.041
			c-0.154-0.079-0.312-0.159-0.473-0.238l-0.022-0.012c-0.287-0.143-0.572-0.29-0.858-0.438c-0.979-0.506-1.943-0.996-2.943-1.287
			v-0.44c1.061,0.294,2.072,0.81,3.099,1.34c0.284,0.146,0.569,0.292,0.854,0.437l0.022,0.01c0.158,0.078,0.317,0.16,0.476,0.24
			c0.098,0.049,0.19,0.098,0.289,0.146c0.375-0.312,0.75-0.666,1.121-1.064c-0.047,0.205-0.07,0.422-0.072,0.652
			c-0.217,0.219-0.436,0.419-0.653,0.607c0.903,0.437,1.756,0.738,2.543,0.486c0.39-0.121,0.646-0.264,0.793-0.416
			c0.112-0.115,0.156-0.233,0.147-0.352c-0.008-0.137-0.076-0.286-0.188-0.438c-0.179-0.25-0.458-0.498-0.763-0.715
			c0.099-0.109,0.207-0.199,0.328-0.271c0.285,0.221,0.545,0.464,0.726,0.713C122.281,64.13,122.382,64.359,122.396,64.591z"/>
	</g>
</g>
</svg>
